# xmcd
#
# Track frame offsets:
#	150
#	29275
#	55065
#	77637
#	134587
#	153680
#	179302
#	209757
#	219382
#	237842
#	257320
#	267552
#	302390
#
# Disc length: 4448 seconds
# Revision: 0
# Processed by: cddbd v1.5.2PL0 Copyright (c) Steve Scherf et al.
# Submitted via: dBpowerAMP V12.0
#
DISCID=b4115e0d
DTITLE=Van Morrison - Stormy Weather In San Anselmo
DYEAR=1900
DGENRE=
TTITLE0=Everybody's Talking
TTITLE1=Help Me
TTITLE2=Wild Children
TTITLE3=Listen To The Lion
TTITLE4=Misty
TTITLE5=White Cliffs Of Dover
TTITLE6=St. Dominics Preview
TTITLE7=Hey, Good Lookin'
TTITLE8=The Way Young Lovers Do
TTITLE9=Snow In San Anselmo
TTITLE10=More and More
TTITLE11=I Just Wanna Make Love To You
TTITLE12=Hard Nose The Highway
EXTD=
EXTT0=
EXTT1=
EXTT2=
EXTT3=
EXTT4=
EXTT5=
EXTT6=
EXTT7=
EXTT8=
EXTT9=
EXTT10=
EXTT11=
EXTT12=
PLAYORDER=
